<?xml version="1.0" encoding="utf-8"?>
<!-- Generator: Adobe Illustrator 24.1.2, SVG Export Plug-In . SVG Version: 6.00 Build 0)  -->
<svg version="1.1" id="Layer_1" xmlns="http://www.w3.org/2000/svg" xmlns:xlink="http://www.w3.org/1999/xlink" x="0px" y="0px"
	viewBox="0 0 199.6 200.2" style="enable-background:new 0 0 199.6 200.2;" xml:space="preserve">
<style type="text/css">
	.st0{fill:#00A1C9;}
	.st1{enable-background:new    ;}
	.st2{fill:#333333;}
</style>
<rect x="1.6" y="15.7" class="st0" width="10.1" height="160.2"/>
<g class="st1">
	<path class="st2" d="M22.2,63.6V22.1h14.4c3.6,0,6.9,1.2,9.3,3.2c2.4,2,3.6,5.1,3.6,8.9c0,3.2-0.8,5.5-2.4,7.7c-1.6,2-4,3.2-7.3,4
		l12,18.1h-4L36.6,46.2H25.3V64h-3.2C22.2,64,22.2,63.6,22.2,63.6z M25.3,43h10.5c3.2,0,5.1-0.8,6.9-2.4c1.6-1.6,2.4-3.6,2.4-6.9
		c0-2.8-0.8-5.1-2.4-6.5c-1.2-1.6-3.2-2-6.5-2H25.3C25.3,25.2,25.3,43,25.3,43z"/>
	<path class="st2" d="M57.6,63.6V22.1h24.5v3.2h-21v15.2h18.2v3.2H61.1V60h21v3.2H57.6V63.6z"/>
	<path class="st2" d="M100.3,63.6V25.4H86.7v-3.2h30.9v3.2H104V64h-3.6L100.3,63.6L100.3,63.6z"/>
	<path class="st2" d="M149,63.6l-4.7-12.5h-19.4l-4.7,12.5h-3.6l16-41.5h4.4l16,41.5H149z M126.4,48.4h16.8l-8.3-22.5L126.4,48.4z"
		/>
	<path class="st2" d="M159,63.6V22.1h3.6v41.5H159z"/>
	<path class="st2" d="M173.5,63.6V22.1h3.6v38.2h21v3.2h-24.5v0.1H173.5z"/>
</g>
<g class="st1">
	<path class="st2" d="M29.3,147.5c-3.2-1.2-5.1-2.8-6.9-4.4c-1.6-1.6-2-3.6-2-6.1c0-3.2,1.2-6.1,3.6-8.1s5.5-3.2,9.3-3.2
		c1.6,0,3.6,0.4,5.5,0.8c2,0.4,3.6,1.2,5.5,1.6v3.2c-4.4-1.6-8.1-2.4-10.9-2.4c-3.2,0-5.5,0.8-7.3,2c-1.6,1.2-2.4,3.2-2.4,5.5
		c0,1.2,0.4,2.4,0.8,3.2s1.2,1.6,2.4,2.4c1.2,0.8,2.8,1.6,4.7,2.4l6.5,2.4c2.8,1.2,4.7,2.4,6.5,4c1.2,1.6,2,3.6,2,6.1
		c0,3.6-1.2,6.5-4,8.9s-6.1,3.2-10.5,3.2s-8.1-0.6-11.7-2.2v-3.2c4,1.6,8.1,2.4,11.7,2.4c3.2,0,6.1-0.8,8.1-2.4
		c2-1.6,2.8-3.6,2.8-6.5c0-1.6-0.4-3.2-1.6-4c-1.2-1.2-2.8-2-5.1-3.2L29.3,147.5z"/>
	<path class="st2" d="M65.3,168.2v-38.6H51.6v-3.2h31.1v3.2h-14v38.6C68.5,168.2,65.3,168.2,65.3,168.2z"/>
	<path class="st2" d="M85.3,147.5c0-6.9,1.6-12.1,5.1-16c3.2-4,8.1-5.5,14-5.5s10.9,2,14,5.5c3.2,4,5.1,9.3,5.1,16
		c0,6.9-1.6,12.1-5.1,16c-3.2,4-8.1,5.5-14,5.5s-10.9-2-14-5.5C86.8,159.9,85.3,154.2,85.3,147.5z M89,147.5c0,6.1,1.2,10.5,4,13.6
		c2.4,3.2,6.5,4.7,11.7,4.7c5.1,0,8.9-1.6,11.7-4.7c2.4-3.2,4-7.7,4-13.6c0-6.1-1.2-10.5-4-13.6c-2.4-3.2-6.5-4.7-11.7-4.7
		c-5.1,0-8.9,1.6-11.7,4.7C90.2,137,89,141.3,89,147.5z"/>
	<path class="st2" d="M132.9,168.2v-41.7h14.4c3.6,0,6.9,1.2,9.3,3.2c2.4,2,3.6,5.1,3.6,8.9c0,3.2-0.8,5.5-2.4,7.7
		c-1.6,2-4,3.2-7.3,4l12.1,18.2h-4l-11.3-17.8h-10.5v17.8C136.9,168.2,132.9,168.2,132.9,168.2z M136.1,147.5h10.5
		c3.2,0,5.1-0.8,6.9-2.4c1.6-1.6,2.4-3.6,2.4-6.9c0-2.8-0.8-5.1-2.4-6.5c-1.6-1.6-3.6-2.4-6.5-2.4h-10.9V147.5z"/>
	<path class="st2" d="M168.3,168.2v-41.7h24.5v3.2h-21v15.2H190v3.2h-18.2v16.8h21v3.4L168.3,168.2L168.3,168.2z"/>
</g>
<g class="st1">
	<path class="st0" d="M21.8,115.6V74.1h14.8c6.1,0,10.9,1.6,14.4,5.1c3.2,3.6,4.7,8.9,4.7,15.2c0,6.9-1.6,11.7-4.7,15.2
		c-3.2,3.6-8.1,5.5-14,5.5C37,115.6,21.8,115.6,21.8,115.6z M30.7,81v27.7h5.1c7.3,0,10.9-4.4,10.9-13.3v-1.2
		c0-8.9-3.6-13.3-10.9-13.3h-5.1V81z"/>
	<path class="st0" d="M64.5,115.6V74.1h27.3V81H73.2v9.7H88v6.9H73.2v11.3h18.6v6.9H64.5V115.6z"/>
	<path class="st0" d="M133.3,115.6V86.5l-9.3,18.6h-8.1l-9.3-18.6v29.1h-8.1V74.1h9.7l11.3,23.7l11.3-23.7h9.7v41.5
		C140.4,115.6,133.3,115.6,133.3,115.6z"/>
	<path class="st0" d="M149.7,94.6c0-4.4,0.8-8.5,2.4-11.7c1.6-3.2,4-5.5,6.9-7.7c3.2-1.6,6.9-2.8,10.9-2.8s7.7,0.8,10.9,2.4
		s5.1,4,7.3,7.7c1.6,3.2,2.4,7.3,2.4,11.7c0,4.4-0.8,8.5-2.4,11.7c-1.6,3.2-4,5.5-6.9,7.7c-3.2,1.6-6.9,2.8-10.9,2.8
		s-7.7-0.8-10.9-2.4s-5.1-4-7.3-7.7C150.5,103.2,149.7,99.4,149.7,94.6z M159,94.6c0,4.7,0.8,8.5,2.8,10.9s4.4,3.6,8.1,3.6
		c3.8,0,6.5-1.2,8.1-3.6c2-2.4,2.8-6.1,2.8-10.9s-0.8-8.5-2.8-10.9s-4.4-3.6-8.1-3.6c-3.8,0-6.5,1.2-8.1,3.6
		C159.8,86.5,159,90.3,159,94.6z"/>
</g>
</svg>
