<?xml version="1.0" encoding="utf-8"?>
<!-- Generator: Adobe Illustrator 24.1.2, SVG Export Plug-In . SVG Version: 6.00 Build 0)  -->
<svg version="1.1" id="Layer_1" xmlns="http://www.w3.org/2000/svg" xmlns:xlink="http://www.w3.org/1999/xlink" x="0px" y="0px"
	 viewBox="0 0 84.8 85" style="enable-background:new 0 0 84.8 85;" xml:space="preserve">
<style type="text/css">
	.st0{fill:#00A1C9;}
</style>
<g id="Product_Icon_2_">
	<path class="st0" d="M40.2,65.7c-13.1,0-23.6-10.6-23.6-23.6s10.6-23.6,23.6-23.6s23.6,10.6,23.6,23.6S53.4,65.7,40.2,65.7z
		 M40.2,22c-11.1,0-20.6,9.1-20.6,20.6s9.1,20.6,20.6,20.6S60.8,54,60.8,42.6S51.4,22,40.2,22z"/>
	<g>
		<g>
			<path class="st0" d="M9.7,30.4l-3-1C12.3,15.9,25.2,6.3,40.4,6.3c0.5,0,1.5,0.5,1.5,1c0.5,0.5,0,1.5-0.5,2l-5.6,5.6l-2.5-2.5
				l2.5-2.5C24.2,11.4,14.1,19.5,9.7,30.4z"/>
			<path class="st0" d="M74.5,44.1c-0.5,0-1,0-1-0.5L67.9,38l2.5-2.5l2.5,2.5c-2-11.6-10.1-22.1-21.1-26.1l1-3
				C66.4,13.9,76,27.4,76,42.6c0,0.5-0.5,1.5-1,1.5C74.5,44.1,74.5,44.1,74.5,44.1z"/>
			<path class="st0" d="M40.2,78.3c-0.5,0-1.5-0.5-1.5-1c-0.5-0.5,0-1.5,0.5-2l5.6-5.6l2.5,2.5l-2.5,2.5
				c11.6-1.5,22.1-9.6,26.1-20.6l3,1C68.4,68.7,54.9,78.3,40.2,78.3z"/>
			<path class="st0" d="M27.3,75.8C13.8,70.7,4.2,57.2,4.2,42.1c0-0.5,0.5-1.5,1-1.5c0.5-0.5,1.5,0,2,0.5l5.6,5.6l-2.5,2.5l-2-2.5
				c1.5,11.6,9.6,22.1,20.6,26.1L27.3,75.8z"/>
		</g>
		
			<rect x="-0.1" y="43.8" transform="matrix(0.5232 -0.8522 0.8522 0.5232 -36.9263 25.0746)" class="st0" width="8.1" height="3.5"/>
		<rect x="72.6" y="37.4" transform="matrix(0.5234 -0.8521 0.8521 0.5234 3.1938 84.0096)" class="st0" width="8.1" height="3.5"/>
		<rect x="35.9" y="1.1" transform="matrix(0.69 -0.7238 0.7238 0.69 7.9237 28.8547)" class="st0" width="3.5" height="8.1"/>
		<rect x="41.4" y="75.1" transform="matrix(0.69 -0.7238 0.7238 0.69 -43.8813 55.7895)" class="st0" width="3.5" height="8.1"/>
	</g>
	<g>
		<g>
			<g>
				<g>
					<g>
						<path class="st0" d="M39.9,42.1c-4.6,0-8.1-3.5-8.1-8.1s4-7.6,8.1-7.6c4.6,0,8.1,3.5,8.1,8.1S44.3,42.1,39.9,42.1z M39.9,29.4
							c-2.5,0-4.6,2-4.6,4.6c0,2.5,2,4.6,4.6,4.6c2.5,0,4.6-2,4.6-4.6C44.5,31.4,42.3,29.4,39.9,29.4z"/>
					</g>
				</g>
				<path class="st0" d="M50.9,54.2H28.8c-1,0-1.5-0.5-1.5-1.5c0-4.6,2.5-9.1,6.1-11.1c2-1,4-2,6.6-2c7.1,0,12.6,6.1,12.6,13.1
					C52.9,53.2,51.9,54.2,50.9,54.2z M30.8,50.7h18.5c-1-4.6-4.6-8.1-9.1-8.1c-1.5,0-3.5,0.5-5.1,1.5C32.8,45.6,31.3,48.1,30.8,50.7
					z"/>
			</g>
		</g>
	</g>
</g>
</svg>
