<?xml version="1.0" encoding="utf-8"?>
<!-- Generator: Adobe Illustrator 24.1.2, SVG Export Plug-In . SVG Version: 6.00 Build 0)  -->
<svg version="1.1" id="Layer_1" xmlns="http://www.w3.org/2000/svg" xmlns:xlink="http://www.w3.org/1999/xlink" x="0px" y="0px"
	 viewBox="0 0 49.6 49.7" style="enable-background:new 0 0 49.6 49.7;" xml:space="preserve">
<style type="text/css">
	.st0{fill:#00A1C9;}
</style>
<g id="Icon_Test_1_">
	<path class="st0" d="M24.6,48.6c-13.2,0-24-10.8-24-24s10.8-24,24-24c3.4,0,6.6,0.7,9.7,2l-0.8,1.8c-2.8-1.2-5.8-1.9-8.9-1.9
		c-12.1,0-22,9.9-22,22s9.9,22,22,22s22-9.9,22-22c0-3.1-0.6-6.1-1.8-8.8l1.8-0.8c1.3,3,2,6.3,2,9.6C48.6,37.8,37.8,48.6,24.6,48.6z
		"/>
	<path class="st0" d="M40.9,2.5c-3.2,0-5.8,2.6-5.8,5.8c0,1.2,0.4,2.4,1.1,3.3L34.7,13c-2.7-2.4-6.3-3.8-10.2-3.8
		C16,9.1,9.1,16,9.1,24.6C9.1,33.1,16,40,24.6,40C33.1,40,40,33.1,40,24.6c0-3.9-1.5-7.5-3.9-10.2l1.4-1.3c1,0.7,2.1,1.1,3.3,1.1
		c3.2,0,5.8-2.6,5.8-5.8C46.7,5.1,44.1,2.5,40.9,2.5z M38,24.6C38,32,32,38,24.6,38s-13.4-6-13.4-13.4s6-13.5,13.4-13.5
		c3.3,0,6.4,1.2,8.8,3.3l-3.9,3.9c-1.3-1-3-1.7-4.9-1.7c-4.4,0-8,3.6-8,8s3.6,8,8,8s8-3.6,8-8c0-1.8-0.6-3.5-1.7-4.9l3.9-3.9
		C36.8,18.1,38,21.2,38,24.6z M30.5,24.6c0,3.3-2.7,6-6,6s-6-2.7-6-6s2.7-6,6-6c1.3,0,2.5,0.4,3.4,1.1l-4.2,4.1l1.4,1.4l4.2-4.2
		C30.1,22.1,30.5,23.3,30.5,24.6z M40.9,12.1c-2.1,0-3.8-1.7-3.8-3.8s1.7-3.8,3.8-3.8s3.8,1.7,3.8,3.8S43,12.1,40.9,12.1z"/>
</g>
</svg>
