<?xml version="1.0" encoding="utf-8"?>
<!-- Generator: Adobe Illustrator 24.1.2, SVG Export Plug-In . SVG Version: 6.00 Build 0)  -->
<svg version="1.1" id="Layer_1" xmlns="http://www.w3.org/2000/svg" xmlns:xlink="http://www.w3.org/1999/xlink" x="0px" y="0px"
	 viewBox="0 0 154.8 130.4" style="enable-background:new 0 0 154.8 130.4;" xml:space="preserve">
<style type="text/css">
	.st0{fill:#FFFFFF;}
	.st1{enable-background:new    ;}
</style>
<g>
	<rect x="143.2" y="11.4" class="st0" width="1.4" height="109.9"/>
	<g class="st1">
		<path class="st0" d="M10.7,44.2V15.8h9.9c2.5,0,4.7,0.8,6.4,2.2c1.6,1.4,2.5,3.5,2.5,6.1c0,2.2-0.5,3.8-1.6,5.3
			c-1.1,1.4-2.7,2.2-5,2.7L31,44.5h-2.7l-7.7-12.2h-7.8v12.2h-2.2C10.7,44.5,10.7,44.2,10.7,44.2z M12.8,30.1H20
			c2.2,0,3.5-0.5,4.7-1.6c1.1-1.1,1.6-2.5,1.6-4.7c0-1.9-0.5-3.5-1.6-4.5c-0.8-1.1-2.2-1.4-4.5-1.4h-7.5V30.1z"/>
		<path class="st0" d="M35,44.2V15.8h16.8V18H37.4v10.4h12.5v2.2H37.4v11.2h14.4V44H35V44.2z"/>
		<path class="st0" d="M64.3,44.2V18H55v-2.2h21.2V18h-9.3v26.5h-2.5L64.3,44.2L64.3,44.2z"/>
		<path class="st0" d="M97.7,44.2l-3.2-8.6H81.2l-3.2,8.6h-2.5l11-28.5h3l11,28.5H97.7z M82.2,33.8h11.5L88,18.4L82.2,33.8z"/>
		<path class="st0" d="M104.6,44.2V15.8h2.5v28.5H104.6z"/>
		<path class="st0" d="M114.5,44.2V15.8h2.5V42h14.4v2.2L114.5,44.2L114.5,44.2L114.5,44.2z"/>
	</g>
	<g class="st1">
		<path class="st0" d="M15.6,101.8c-2.2-0.8-3.5-1.9-4.7-3c-1.1-1.1-1.4-2.5-1.4-4.2c0-2.2,0.8-4.2,2.5-5.6c1.6-1.4,3.8-2.2,6.4-2.2
			c1.1,0,2.5,0.3,3.8,0.5c1.4,0.3,2.5,0.8,3.8,1.1v2.2c-3-1.1-5.6-1.6-7.5-1.6c-2.2,0-3.8,0.5-5,1.4c-1.1,0.8-1.6,2.2-1.6,3.8
			c0,0.8,0.3,1.6,0.5,2.2c0.3,0.5,0.8,1.1,1.6,1.6c0.8,0.5,1.9,1.1,3.2,1.6l4.5,1.6c1.9,0.8,3.2,1.6,4.5,2.7
			c0.8,1.1,1.4,2.5,1.4,4.2c0,2.5-0.8,4.5-2.7,6.1c-1.9,1.6-4.2,2.2-7.2,2.2s-5.6-0.4-8-1.5v-2.2c2.7,1.1,5.6,1.6,8,1.6
			c2.2,0,4.2-0.5,5.6-1.6c1.4-1.1,1.9-2.5,1.9-4.5c0-1.1-0.3-2.2-1.1-2.7c-0.8-0.8-1.9-1.4-3.5-2.2L15.6,101.8z"/>
		<path class="st0" d="M40.3,116V89.5h-9.4v-2.2h21.3v2.2h-9.6V116C42.5,116,40.3,116,40.3,116z"/>
		<path class="st0" d="M54,101.8c0-4.7,1.1-8.3,3.5-11c2.2-2.7,5.6-3.8,9.6-3.8c4,0,7.5,1.4,9.6,3.8c2.2,2.7,3.5,6.4,3.5,11
			c0,4.7-1.1,8.3-3.5,11c-2.2,2.7-5.6,3.8-9.6,3.8c-4,0-7.5-1.4-9.6-3.8C55,110.3,54,106.4,54,101.8z M56.5,101.8
			c0,4.2,0.8,7.2,2.7,9.3c1.6,2.2,4.5,3.2,8,3.2c3.5,0,6.1-1.1,8-3.2c1.6-2.2,2.7-5.3,2.7-9.3c0-4.2-0.8-7.2-2.7-9.3
			c-1.6-2.2-4.5-3.2-8-3.2c-3.5,0-6.1,1.1-8,3.2C57.4,94.6,56.5,97.6,56.5,101.8z"/>
		<path class="st0" d="M86.7,116V87.4h9.9c2.5,0,4.7,0.8,6.4,2.2c1.6,1.4,2.5,3.5,2.5,6.1c0,2.2-0.5,3.8-1.6,5.3
			c-1.1,1.4-2.7,2.2-5,2.7l8.3,12.5h-2.7L96.5,104h-7.2v12.2C89.4,116,86.7,116,86.7,116z M88.9,101.8h7.2c2.2,0,3.5-0.5,4.7-1.6
			c1.1-1.1,1.6-2.5,1.6-4.7c0-1.9-0.5-3.5-1.6-4.5c-1.1-1.1-2.5-1.6-4.5-1.6h-7.5V101.8z"/>
		<path class="st0" d="M111,116V87.4h16.8v2.2h-14.4V100h12.5v2.2h-12.5v11.5h14.4v2.3L111,116L111,116z"/>
	</g>
	<g class="st1">
		<path class="st0" d="M10.4,79.9V51.4h10.2c4.2,0,7.5,1.1,9.9,3.5c2.2,2.5,3.2,6.1,3.2,10.4c0,4.7-1.1,8-3.2,10.4
			c-2.2,2.5-5.6,3.8-9.6,3.8C20.9,79.9,10.4,79.9,10.4,79.9z M16.5,56.2v19H20c5,0,7.5-3,7.5-9.1v-0.8c0-6.1-2.5-9.1-7.5-9.1
			L16.5,56.2L16.5,56.2z"/>
		<path class="st0" d="M39.7,79.9V51.4h18.7v4.7H45.7v6.7h10.2v4.7H45.7v7.8h12.8v4.7H39.7V79.9z"/>
		<path class="st0" d="M86.9,79.9V60l-6.4,12.8H75L68.6,60v20h-5.6V51.4h6.7l7.8,16.3l7.8-16.3h6.7v28.5
			C91.8,79.9,86.9,79.9,86.9,79.9z"/>
		<path class="st0" d="M98.2,65.5c0-3,0.5-5.8,1.6-8c1.1-2.2,2.7-3.8,4.7-5.3c2.2-1.1,4.7-1.9,7.5-1.9c2.7,0,5.3,0.5,7.5,1.6
			c2.2,1.1,3.5,2.7,5,5.3c1.1,2.2,1.6,5,1.6,8c0,3-0.5,5.8-1.6,8c-1.1,2.2-2.7,3.8-4.7,5.3c-2.2,1.1-4.7,1.9-7.5,1.9
			c-2.7,0-5.3-0.5-7.5-1.6c-2.2-1.1-3.5-2.7-5-5.3C98.7,71.4,98.2,68.8,98.2,65.5z M104.6,65.5c0,3.2,0.5,5.8,1.9,7.5
			c1.4,1.6,3,2.5,5.6,2.5c2.6,0,4.5-0.8,5.6-2.5c1.4-1.6,1.9-4.2,1.9-7.5c0-3.3-0.5-5.8-1.9-7.5c-1.4-1.6-3-2.5-5.6-2.5
			c-2.6,0-4.5,0.8-5.6,2.5C105.1,60,104.6,62.6,104.6,65.5z"/>
	</g>
</g>
</svg>
