<?xml version="1.0" encoding="utf-8"?>
<!-- Generator: Adobe Illustrator 24.1.2, SVG Export Plug-In . SVG Version: 6.00 Build 0)  -->
<svg version="1.1" id="Layer_1" xmlns="http://www.w3.org/2000/svg" xmlns:xlink="http://www.w3.org/1999/xlink" x="0px" y="0px"
	 viewBox="0 0 2400 506.9" style="enable-background:new 0 0 2400 506.9;" xml:space="preserve">
<style type="text/css">
	.st0{fill:#FFFFFF;}
	.st1{fill:#10069F;}
</style>
<ellipse class="st0" cx="255" cy="253.2" rx="249" ry="249"/>
<path class="st1" d="M225.5,116.2c-1.4-1.8-3-2.8-4.7-2.8c-1.3,0-2.5,0.5-3.6,1.2c-13.3,10.4-31.4,54.5-46.3,112.7l13.2,0.1
	c26,0.3,52.8,0.6,79.4,1c-7-26.6-13.6-49.5-19.7-67.9C234.9,133.7,228.9,121.6,225.5,116.2z"/>
<path class="st1" d="M255,4.2C117.5,4.2,6,115.6,6,253.2s111.5,249,249,249s249-111.5,249-249S392.5,4.2,255,4.2z M434,257.7
	L434,257.7c-0.3,0.3-0.6,0.5-0.9,0.7l-0.3,0.2l-0.6,0.4c-0.2,0.1-0.4,0.2-0.5,0.3l0,0c-1.9,1-4,1.5-6.1,1.5h-118
	c1,3.9,2,8.4,3.1,13.2c6.5,27.9,23.6,102.1,41.9,102.1h0.9c14.3,0,21.5-20.6,37.5-65.7l0.2-0.6c2.6-7.3,5.5-15.4,8.6-24.1l0.8-2.2
	l0,0c1-3,4.3-4.5,7.2-3.5c2.9,1,4.5,4.2,3.5,7.1l0,0l-0.7,2.2c-1.7,5.4-3.4,12.7-5.5,21.2c-9.5,39.4-23.9,98.9-60.7,98.9h-0.3
	c-23.8-0.2-38-38.2-44.1-54.5c-11.4-30.4-20-62.7-28.3-94.1H163.3l-22.5,72.1l-0.3-0.3c-3.4,5.3-10.5,6.9-15.8,3.5
	c-3.3-2.1-5.3-5.7-5.3-9.6v-0.4l1.4-8.1c3.1-18.5,6.8-37.8,11.1-57.2H86l-0.2-0.2c-8.4-1.3-14.7-8.6-14.7-17.1
	c0-8.3,5.9-15.5,14.1-17c1.8-0.2,3.6-0.3,5.4-0.2h2.2c14.5,0.2,30,0.5,46.9,0.7c23.9-97.2,51.7-146.6,82.4-146.7
	c33,0,57.5,75.1,77,148.6l0.1,0.3c40.3,0.8,83.2,2,124.9,5l1.8,0.2c0.7,0,1.3,0.1,2,0.2h0.6c7.1,1.4,11.8,8.4,10.3,15.5
	C438.1,253,436.4,255.8,434,257.7L434,257.7z"/>
<path class="st1" d="M642.2,315.5l-19.7,48.8h-57.3l109.1-254.7h50.6l108.7,254.7h-57l-19.7-48.8H642.2z M699.2,173.9L662,266.6
	h75.2L699.2,173.9z"/>
<path class="st1" d="M1156.8,266.3v97.9H1105v-93.5c0-28.3-13.8-43.6-38-43.6c-10.8,0-22.7,4.9-33.5,19.7c0.9,6.4,1.4,12.9,1.5,19.4
	v97.9h-51.7v-93.5c0-28.3-13.8-43.6-38.3-43.6c-10.1,0-21.2,6-31.7,20.1V364h-51.8V185.9h51.8v10.8c11.2-10.4,23.1-16.4,44-16.4
	c22.7,0,42.8,8.9,57,25.3c19-17.5,36.9-25.3,64.8-25.3C1122.6,180.3,1156.8,214.2,1156.8,266.3z"/>
<path class="st1" d="M1384.3,275.2c0,51.8-39.5,92.7-88.6,92.7c-20.1,0-36.9-5.2-50.7-14.1v96.4h-51.8V185.9h51.8v10.4
	c13.8-8.9,30.5-14.1,50.7-14.1C1344.9,182.1,1384.3,222.7,1384.3,275.2z M1333.3,275.2c0-26.4-19.4-49.5-46.2-49.5
	c-15.3,0-30.5,5.2-42.1,20.9v57c11.6,15.3,26.8,20.5,42.1,20.5C1314,324,1333.3,301.3,1333.3,275.2L1333.3,275.2z"/>
<path class="st1" d="M1465.2,364.2h-51.8V99.8h51.8V364.2z"/>
<path class="st1" d="M1511.7,122.9c0-17.5,13.8-30.5,31.3-30.5c17.1,0,30.9,13,30.9,30.5c0,17.1-13.8,29.8-30.9,29.8
	C1525.5,152.7,1511.7,140.1,1511.7,122.9z M1569,185.9v178.4h-51.8V185.9H1569z"/>
<path class="st1" d="M1757.1,361.6c-21.6,6.7-31.3,8.2-48,8.2c-43.2,0-71.5-30.5-71.5-76.7v-63.7H1600v-43.6h37.6v-63.7h51.4v63.7
	h64.4v43.6H1689v63.3c0,20.1,12.3,29.4,31.3,29.4c9.7,0,20.1-2.2,30.2-4.8L1757.1,361.6z"/>
<path class="st1" d="M1964.9,364.2h-51.8v-12.7c-14.5,11.5-30.9,18.2-51,18.2c-46.9,0-78.2-33.9-78.2-85.6v-98.3h51.8v93.5
	c0,28.3,14.2,43.6,38.4,43.6c13,0,27.2-7.8,39.1-22.3V185.9h51.8L1964.9,364.2z"/>
<path class="st1" d="M2184.6,364.2h-51.8v-10.4c-13.8,8.9-30.5,14.1-50.6,14.1c-49.2,0-89-40.6-89-93.1c0-51.8,39.8-92.7,89-92.7
	c20.1,0,36.9,5.2,50.6,14.1V99.8h51.8V364.2z M2132.8,303.5v-57c-11.5-15.3-26.8-20.5-42.1-20.5c-27.2,0-46.2,22.7-46.2,48.8
	c0,26.4,19,49.5,46.2,49.5C2106,324.4,2121.3,319.2,2132.8,303.5z"/>
<path class="st1" d="M2394.6,288.3h-131.4c4.1,20.9,17.9,37.2,46.2,37.2c14.5,0,24.6-4.5,30.2-13.4h54
	c-9.7,34.3-43.2,57.7-85.3,57.7c-57.4,0-96.1-41.3-96.1-94.6c0-55.1,38.4-95,94.6-95c51,0,89,36.1,89,91.2
	C2395.8,277.1,2395.5,282.7,2394.6,288.3z M2263.5,257.7h80.8c-3-22.3-16.4-34.6-37.2-34.6C2282.2,223.1,2268.4,237.6,2263.5,257.7z
	"/>
</svg>
