<svg height="62.8" viewBox="0 0 300 62.8" width="300" xmlns="http://www.w3.org/2000/svg" xmlns:xlink="http://www.w3.org/1999/xlink"><clipPath id="a"><path d="m0 0h300v62.8h-300z"/></clipPath><g clip-path="url(#a)"><path d="m50.25 47.1v15.7l25.13-15.7v-15.7zm-25.12 0v15.7l25.12-15.7v-15.7zm-25.13 0v15.7l25.13-15.7v-15.7zm75.38-47.1-25.13 15.7v15.7l25.13-15.7zm-25.13 0-25.12 15.7v15.7l25.12-15.7zm-25.12 0-25.13 15.7v15.7l25.13-15.7z"/><g clip-path="url(#a)"><path d="m127.59 32.35v14.87h-6.43v-14.38c0-2.92-1.38-4.35-4-4.35a6.73 6.73 0 0 0 -5.24 2.51v16.22h-6.42v-14.38c0-2.92-1.34-4.35-4-4.35a6.64 6.64 0 0 0 -5.24 2.67v16.06h-6.48v-23.72h6v2.22a11.57 11.57 0 0 1 7.56-2.67c3.26 0 5.63 1.09 7 3.27a13.15 13.15 0 0 1 8.6-3.27c5.58 0 8.6 3.27 8.6 9.3m28.29-3.46a13 13 0 0 1 -2 15.46 12.05 12.05 0 0 1 -8.3 3.42 9.14 9.14 0 0 1 -6.13-2.18v12.7h-6.5v-34.79h6.28v1.83a9.75 9.75 0 0 1 6.32-2.28 11.85 11.85 0 0 1 10.33 5.84m-4.83 6.42c0-4.2-3-6.82-6.33-6.82a7.08 7.08 0 0 0 -5.43 2.42v9.09a6.86 6.86 0 0 0 5.18 2.32c3.66 0 6.58-2.62 6.58-7m33.7 11.9h-6.07v-2a9 9 0 0 1 -6.52 2.56 11.69 11.69 0 0 1 -10.28-5.93 12 12 0 0 1 -1.68-6.42 12.17 12.17 0 0 1 6.13-10.82 11.69 11.69 0 0 1 5.88-1.54 9 9 0 0 1 6.42 2.48v-2h6.13zm-6.38-7.22v-9.2a7 7 0 0 0 -5.32-2.31c-3.46 0-6.43 2.67-6.43 6.92s2.92 6.87 6.38 6.87a6.84 6.84 0 0 0 5.37-2.28m17.94-16.5v2.17c1.93-1.92 4.06-2.62 7.71-2.62v6.13a6 6 0 0 0 -1.78-.2 7.3 7.3 0 0 0 -5.48 2.72v15.52h-6.48v-23.72zm27.23 0v5.34h-5.34v18.38h-6.43v-18.38h-4.99v-5.34h4.99v-7.91h6.43v7.91zm3.64-9.69h6.77v6.53h-6.77zm6.62 9.69h-6.47v23.72h6.47zm27.25 18.93a13.16 13.16 0 0 1 -21.55-.65 12.42 12.42 0 0 1 4.55-17.14 13.26 13.26 0 0 1 6.38-1.59c4.69 0 8.2 1.78 10.53 5.39l-5 3.07a6.41 6.41 0 0 0 -5.53-3c-3.76 0-6.28 2.92-6.28 7s2.42 6.72 6.23 6.72a7 7 0 0 0 5.83-2.92zm4.21-30.74h6.42v35.53h-6.42zm28.67 27.75a7.46 7.46 0 0 1 -5.94 2.73c-3.36 0-5.73-1.82-6.23-5.28h18.29a7 7 0 0 0 .05-1c-.05-7.89-4.94-12.89-12.11-12.89a12.6 12.6 0 0 0 -6.57 1.68 12 12 0 0 0 -6 10.72 12.36 12.36 0 0 0 3.41 8.65 13.22 13.22 0 0 0 19.62-1.63zm-5.79-11.15a5.34 5.34 0 0 1 5.68 4.35h-11.77a5.92 5.92 0 0 1 6.13-4.35"/></g></g></svg>