<svg width="322" height="73" viewBox="0 0 322 73" fill="none" xmlns="http://www.w3.org/2000/svg">
<path d="M92.5542 48.8546L47.6308 70.891L2.70752 48.8546L47.6308 26.8182L92.5542 48.8546Z" fill="#E95495"/>
<path d="M47.631 72.9365C47.3192 72.9368 47.0114 72.8669 46.7304 72.732L1.80704 50.6956C1.46096 50.5281 1.1691 50.2666 0.964879 49.941C0.760659 49.6154 0.652344 49.2389 0.652344 48.8547C0.652344 48.4704 0.760659 48.094 0.964879 47.7684C1.1691 47.4428 1.46096 47.1813 1.80704 47.0138L46.6894 24.9774C46.9706 24.8431 47.2784 24.7733 47.5901 24.7733C47.9018 24.7733 48.2095 24.8431 48.4907 24.9774L93.455 47.0138C93.8011 47.1813 94.0929 47.4428 94.2971 47.7684C94.5014 48.094 94.6097 48.4704 94.6097 48.8547C94.6097 49.2389 94.5014 49.6154 94.2971 49.941C94.0929 50.2666 93.8011 50.5281 93.455 50.6956L48.5317 72.732C48.2506 72.8669 47.9428 72.9368 47.631 72.9365ZM7.36105 48.8547L47.631 68.6138L87.9146 48.8547L47.631 29.0956L7.36105 48.8547Z" fill="black"/>
<g opacity="0.38">
<path opacity="0.38" d="M92.5542 36.6637L47.6308 58.7L2.70752 36.6637L47.6308 14.6273L92.5542 36.6637Z" fill="white"/>
</g>
<path d="M47.6312 60.7592C47.3184 60.7548 47.0106 60.6803 46.7306 60.541L1.80725 38.5456C1.46482 38.3766 1.17651 38.1153 0.974926 37.7912C0.773338 37.4671 0.666504 37.0931 0.666504 36.7115C0.666504 36.3299 0.773338 35.9559 0.974926 35.6317C1.17651 35.3076 1.46482 35.0463 1.80725 34.8774L46.6896 12.8001C46.9688 12.6588 47.2773 12.5851 47.5903 12.5851C47.9032 12.5851 48.2118 12.6588 48.4909 12.8001L93.4552 34.8365C93.7976 35.0054 94.0859 35.2667 94.2875 35.5908C94.4891 35.915 94.5959 36.289 94.5959 36.6706C94.5959 37.0522 94.4891 37.4262 94.2875 37.7503C94.0859 38.0744 93.7976 38.3357 93.4552 38.5047L48.5319 60.541C48.2518 60.6803 47.944 60.7548 47.6312 60.7592ZM7.36125 36.6638L47.6312 56.4228L87.9148 36.6638L47.6312 16.9047L7.36125 36.6638Z" fill="black"/>
<g opacity="0.38">
<path opacity="0.38" d="M92.5542 24.4864L47.6308 46.5228L2.70752 24.4864L47.6308 2.45007L92.5542 24.4864Z" fill="white"/>
</g>
<path d="M47.6312 48.5682C47.3056 48.5748 46.9831 48.5048 46.6896 48.3637L1.80725 26.2728C1.46482 26.1038 1.17651 25.8425 0.974926 25.5184C0.773338 25.1943 0.666504 24.8203 0.666504 24.4387C0.666504 24.0571 0.773338 23.6831 0.974926 23.3589C1.17651 23.0348 1.46482 22.7735 1.80725 22.6046L46.6896 0.609131C46.9708 0.474769 47.2786 0.405029 47.5903 0.405029C47.902 0.405029 48.2097 0.474769 48.4909 0.609131L93.4552 22.6455C93.7976 22.8144 94.0859 23.0757 94.2875 23.3998C94.4891 23.724 94.5959 24.098 94.5959 24.4796C94.5959 24.8612 94.4891 25.2352 94.2875 25.5593C94.0859 25.8834 93.7976 26.1447 93.4552 26.3137L48.5319 48.3637C48.2508 48.4986 47.943 48.5685 47.6312 48.5682ZM7.36125 24.4864L47.6312 44.2455L87.9148 24.4864L47.6312 4.72731L7.36125 24.4864Z" fill="black"/>
<path d="M119.997 54.1046V9.45911H128.089V47.3273H147.767V54.1455L119.997 54.1046Z" fill="black"/>
<path d="M164.047 54.7864C162.076 54.8184 160.122 54.4278 158.315 53.641C156.676 52.9227 155.282 51.7428 154.303 50.2455C153.274 48.5865 152.762 46.6597 152.829 44.7091C152.77 43.0856 153.132 41.4744 153.88 40.0319C154.562 38.8142 155.544 37.7908 156.732 37.0591C158.008 36.2998 159.387 35.7302 160.826 35.3682C162.379 34.9839 163.957 34.706 165.548 34.5364C167.513 34.3319 169.109 34.141 170.324 33.9773C171.278 33.9122 172.208 33.6474 173.053 33.2001C173.331 33.0211 173.556 32.7712 173.704 32.4764C173.853 32.1815 173.92 31.8523 173.899 31.5228V31.4001C173.942 30.6964 173.834 29.9918 173.582 29.3333C173.33 28.6749 172.94 28.0777 172.439 27.5819C171.229 26.6072 169.689 26.1381 168.141 26.2728C166.514 26.1824 164.904 26.628 163.555 27.541C162.52 28.2655 161.738 29.2954 161.317 30.4864L153.935 29.4364C154.454 27.5192 155.444 25.7616 156.814 24.3228C158.19 22.9254 159.872 21.8658 161.727 21.2273C163.788 20.5129 165.959 20.1622 168.141 20.191C169.763 20.1922 171.38 20.3844 172.958 20.7637C174.516 21.1175 175.999 21.7455 177.338 22.6182C178.682 23.5078 179.784 24.7167 180.545 26.1364C181.42 27.8669 181.847 29.7892 181.787 31.7273V54.1046H174.199V49.4546H173.94C173.421 50.4789 172.723 51.4024 171.88 52.1819C170.937 53.0372 169.833 53.6955 168.632 54.1182C167.156 54.6146 165.603 54.841 164.047 54.7864ZM166.094 48.991C167.517 49.025 168.926 48.6965 170.187 48.0364C171.307 47.4616 172.25 46.5945 172.917 45.5273C173.539 44.4946 173.865 43.3103 173.858 42.1046V38.1501C173.48 38.4197 173.054 38.6142 172.603 38.7228C171.958 38.9135 171.302 39.0638 170.638 39.1728C169.901 39.3091 169.191 39.4319 168.468 39.5273L166.626 39.7864C165.543 39.9226 164.48 40.1881 163.46 40.5773C162.629 40.8922 161.892 41.413 161.317 42.091C160.677 42.9705 160.402 44.0633 160.549 45.1409C160.697 46.2186 161.256 47.1974 162.109 47.8728C163.293 48.6515 164.691 49.0423 166.107 48.991H166.094Z" fill="black"/>
<path d="M193.4 66.5956C192.403 66.6026 191.407 66.5205 190.425 66.3502C189.681 66.2326 188.954 66.0313 188.255 65.7502L190.084 59.6274C191.476 60.1041 192.973 60.189 194.41 59.8729C195.11 59.5888 195.736 59.1469 196.238 58.5816C196.74 58.0163 197.104 57.3429 197.303 56.6138L197.985 54.8138L185.881 20.6274H194.26L201.983 45.9093H202.256L209.994 20.6274H218.441L204.986 58.1683C204.417 59.8045 203.573 61.3311 202.488 62.682C201.47 63.929 200.176 64.9231 198.708 65.5865C197.031 66.2981 195.221 66.6422 193.4 66.5956Z" fill="black"/>
<path d="M237.6 54.7592C234.567 54.8429 231.567 54.1181 228.907 52.6592C226.487 51.281 224.531 49.2168 223.285 46.7274C221.924 43.8692 221.264 40.7277 221.361 37.5638C221.292 34.4226 221.97 31.31 223.34 28.482C224.567 25.9681 226.484 23.8543 228.866 22.3865C231.388 20.8852 234.283 20.1243 237.218 20.1911C239.217 20.1764 241.203 20.5133 243.086 21.1865C244.915 21.8409 246.582 22.8829 247.971 24.2411C249.454 25.7331 250.594 27.529 251.314 29.5047C252.185 31.945 252.601 34.5238 252.542 37.1138V39.5274H225.032V34.2092H244.928C244.946 32.7851 244.609 31.3789 243.945 30.1183C243.31 28.9535 242.366 27.9862 241.216 27.3229C240.007 26.6224 238.628 26.2685 237.231 26.3001C235.734 26.2656 234.259 26.6684 232.987 27.4592C231.788 28.2136 230.806 29.2661 230.135 30.5138C229.464 31.7737 229.108 33.1774 229.098 34.6047V39.2547C229.05 40.9793 229.415 42.6905 230.163 44.2456C230.83 45.5793 231.874 46.6886 233.165 47.4365C234.536 48.1979 236.086 48.5793 237.654 48.5411C238.712 48.5553 239.764 48.3892 240.766 48.0501C241.658 47.7821 242.486 47.3317 243.195 46.7274C243.89 46.07 244.419 45.2566 244.737 44.3547L252.119 45.1865C251.663 47.0885 250.723 48.8405 249.39 50.2729C248.052 51.7195 246.399 52.8392 244.559 53.5456C242.337 54.3843 239.975 54.7961 237.6 54.7592Z" fill="black"/>
<path d="M259.174 54.1047V20.6274H266.83V26.2729H267.171C267.691 24.4675 268.806 22.891 270.337 21.8001C271.825 20.7411 273.614 20.1867 275.441 20.2183C275.877 20.2183 276.369 20.2183 276.914 20.2183C277.373 20.241 277.829 20.2957 278.279 20.382V27.6365C277.761 27.4864 277.232 27.3815 276.696 27.3229C276.008 27.2313 275.316 27.1857 274.622 27.1865C273.274 27.162 271.941 27.4761 270.746 28.1001C269.62 28.6905 268.676 29.5769 268.017 30.6638C267.359 31.8163 267.033 33.1284 267.075 34.4547V54.1047H259.174Z" fill="black"/>
<path d="M304.835 57.0228H303.839C299.454 57.0156 295.252 55.272 292.151 52.1741C289.051 49.0762 287.307 44.8766 287.299 40.4955V26.8591C287.303 22.4757 289.046 18.2726 292.147 15.1718C295.247 12.0709 299.452 10.3255 303.839 10.3182H304.835C309.221 10.3218 313.427 12.0638 316.531 15.1621C319.634 18.2604 321.38 22.4621 321.388 26.8455V40.4819C321.384 44.8677 319.639 49.0728 316.535 52.1741C313.432 55.2753 309.224 57.0192 304.835 57.0228ZM303.839 18.5001C301.625 18.5037 299.503 19.3841 297.937 20.9484C296.372 22.5127 295.491 24.6333 295.487 26.8455V40.4819C295.491 42.6941 296.372 44.8147 297.937 46.379C299.503 47.9433 301.625 48.8237 303.839 48.8273H304.835C307.051 48.8273 309.177 47.9485 310.745 46.3838C312.313 44.8191 313.196 42.6965 313.2 40.4819V26.8455C313.196 24.6309 312.313 22.5082 310.745 20.9436C309.177 19.3789 307.051 18.5001 304.835 18.5001H303.839Z" fill="#E95495"/>
<path d="M313.427 19.0587L289.531 42.4833L295.265 48.324L319.161 24.8994L313.427 19.0587Z" fill="#E95495"/>
</svg>
