<svg xmlns="http://www.w3.org/2000/svg" viewBox="0 0 125.7 32"><path d="M56.4 14.9c2.8 0 4.6 2.1 4.6 5.2s-1.9 5.2-4.6 5.2c-1.3 0-2.2-.6-2.6-1-.1-.1-.2 0-.2.1V29c0 .1 0 .1-.1.1h-2.2c-.1 0-.1 0-.1-.1V15.2c0-.1 0-.1.1-.1h1.5c.1 0 .2 0 .3.1l.5.7c.1.1.2.1.3 0 .4-.6 1.5-1 2.5-1zm-.4 2.2c-1.6 0-2.4 1.3-2.4 3 0 2 .8 3 2.4 3 1.7 0 2.6-1.3 2.6-3-.1-1.8-.9-3-2.6-3zm65.9 9.5c-.9 2.4-1 2.5-3.2 2.5h-2.9c-.1 0-.1 0-.1-.1v-1.9c0-.1 0-.1.1-.1h2.4c1.3 0 1.3-.4.8-2l-3.3-9.9c0-.1 0-.1.1-.1h2.3c.1 0 .1 0 .1.1l2.4 7.7c0 .1.2.1.2 0l2.4-7.7c0-.1.1-.1.1-.1h2.3c.1 0 .1 0 .1.1l-3.8 11.5zm-78.3-1.2c-4.2 0-6.3-3-6.3-7.2s2.1-7.2 6.3-7.2c4.2 0 6.3 3 6.3 7.2s-2.1 7.2-6.3 7.2zm3.8-7.2c0-3.1-1.4-5-3.8-5-2.5 0-3.8 1.9-3.8 5s1.4 5 3.8 5 3.8-1.9 3.8-5zm13.9-1c-.1 0-.1-.1 0 0l-.1-2c0-.1 0-.1.1-.1h1.6c.1 0 .1 0 .1-.1v-2.7c0-.1 0-.1.1-.1h2.2c.1 0 .1 0 .1.1V15c0 .1 0 .1.1.1h2c.1 0 .1 0 .1.1v1.9c0 .1 0 .1-.1.1h-2c-.1 0-.1 0-.1.1v5.1c0 .4.3.6.7.6h1.4c.1 0 .1 0 .1.1v2c0 .1 0 .1-.1.1H66c-2.1 0-3-.8-3-2.8v-5.1c0-.1 0-.1-.1-.1h-1.6zm7.9-3.7c-.1 0-.1 0 0 0l-.1-2.3c0-.1 0-.1.1-.1h2.2c.1 0 .1 0 .1.1v2.2c0 .1 0 .1-.1.1h-2.2zm0 11.7c-.1 0-.1-.1 0 0l-.1-10c0-.1 0-.1.1-.1h2.2c.1 0 .1 0 .1.1v9.9c0 .1 0 .1-.1.1h-2.2zm15.8 0s-.1-.1 0 0l-.1-5.6c0-1.2-.4-2.5-1.8-2.5s-1.8 1.1-1.8 2.5v5.5c0 .1 0 .1-.1.1H79c-.1 0-.1 0-.1-.1v-5.5c0-1.2-.4-2.5-1.8-2.5s-1.8 1.1-1.8 2.5v5.5c0 .1 0 .1-.1.1H73c-.1 0-.1 0-.1-.1v-9.9c0-.1 0-.1.1-.1h1.9c.1 0 .2 0 .2.1l.2.6c0 .1.1.1.2 0 .4-.4 1.5-1 2.4-1 1.2 0 2.1.5 2.6 1.2 0 .1.1.1.2 0 .6-.6 1.4-1.2 2.6-1.2 2.5 0 4 1.4 4 4.5v5.6c0 .1 0 .1-.1.1H85zm3.9-11.7c-.1 0-.1 0 0 0l-.1-2.3c0-.1 0-.1.1-.1h2.2c.1 0 .1 0 .1.1v2.2c0 .1 0 .1-.1.1h-2.2zm0 11.7c-.1 0-.1-.1 0 0l-.1-10c0-.1 0-.1.1-.1h2.2c.1 0 .1 0 .1.1v9.9c0 .1 0 .1-.1.1h-2.2zm3.8 0s-.1-.1 0 0l-.1-2c0-.1 0-.1.1-.2l4.8-5.5s0-.2-.1-.2h-4.5c-.1 0-.1 0-.1-.1v-2c0-.1 0-.1.1-.1h7.5c.1 0 .1 0 .1.1v2.1l-4.8 5.6s0 .2.1.2h4.9c.1 0 .1 0 .1.1v2c0 .1 0 .1-.1.1h-8zm18-4.2h-6.9c-.1 0-.1 0-.1.1 0 1.1 1 2 2.4 2 .9 0 1.6-.2 1.9-.9 0 0 .1-.1.2-.1h2.3c.1 0 .1 0 .1.1-.4 1.9-2.2 3.1-4.5 3.1-2.9 0-4.9-2.1-4.9-5.2s1.9-5.2 4.9-5.2 4.9 2.1 4.9 5.2c-.1.4-.1.6-.3.9.1 0 .1 0 0 0zm-2.4-1.9s0-.1 0 0c.1-.9-.6-2-2.2-2s-2.4 1.1-2.4 1.9c0 .1 0 .1.1.1h4.5zm3.9 6.1c-.1 0-.1-.1 0 0l-.1-13.9c0-.1 0-.1.1-.1h2.2c.1 0 .1 0 .1.1v13.8c0 .1 0 .1-.1.1h-2.2z"/><path d="M11.8 3.5c-1.5 1.5-2.5 3.3-3 5.3-2 .5-3.8 1.5-5.3 3C1.2 14.1 0 17.1 0 20.1l8.4-8.4c0 .7.1 1.5.2 2.2L.2 22.3c.2 1.2.6 2.4 1.2 3.5l5.4-5.4c-.1-1.4.4-2.8 1.5-3.8.3-.3.5-.5.8-.7.6 1.6 1.5 3 2.7 4.3 1.2 1.2 2.7 2.2 4.3 2.7-.2.3-.4.6-.7.8-1.1 1.1-2.5 1.5-3.8 1.5l-5.4 5.4c1.1.6 2.3 1 3.5 1.2l8.4-8.4c.7.1 1.5.2 2.2.2L11.9 32c3 0 6-1.2 8.2-3.5 1.5-1.5 2.5-3.4 3.1-5.3 1.9-.5 3.8-1.5 5.3-3.1 4.6-4.6 4.6-12.1 0-16.7s-12.1-4.6-16.7.1zm12 11.9c-2 2-5.2 2-7.1 0s-2-5.2 0-7.1c2-2 5.2-2 7.1 0s1.9 5.1 0 7.1z" class="st0"/><path d="M8.2 23.8c-.4-.4-.7-.9-1-1.4l-4.9 4.9c.3.4.7.9 1.1 1.3.4.4.8.8 1.3 1.1l4.9-4.9c-.5-.3-.9-.6-1.4-1z" class="st0"/></svg>