<svg xmlns="http://www.w3.org/2000/svg" width="120" height="24" class="navbar-brand__logo adjustable-element d-block"><path d="M.162 9.371a.44.44 0 01-.05-.35A12.043 12.043 0 019.726.188a12.19 12.19 0 016.04.483.461.461 0 01.264.238.452.452 0 010 .35l-.591 1.539c-.04.11-.121.2-.228.25a.458.458 0 01-.342.019 9.58 9.58 0 00-4.739-.368A9.473 9.473 0 005.818 4.65a9.505 9.505 0 00-3.196 4.975.446.446 0 01-.161.242.464.464 0 01-.28.095H2.08l-1.62-.38a.458.458 0 01-.287-.209M23.677 13.194a.45.45 0 00-.31-.169l-1.658-.169a.465.465 0 00-.327.095.445.445 0 00-.169.29 9.381 9.381 0 01-3.045 5.73 9.457 9.457 0 01-4.61 2.283 9.58 9.58 0 01-5.147-.452.458.458 0 00-.487.104.436.436 0 00-.094.144l-.646 1.54a.433.433 0 000 .35.425.425 0 00.256.245c1.385.534 2.86.807 4.349.805 3.01 0 5.908-1.112 8.115-3.112a11.97 11.97 0 003.853-7.34.438.438 0 00-.095-.338M14.527 15.433v-1.658a.446.446 0 00-.132-.32.467.467 0 00-.325-.134H.521a.467.467 0 00-.322.136.446.446 0 00-.132.318v1.658a.441.441 0 00.133.32.463.463 0 00.324.134H14.07a.47.47 0 00.325-.135.45.45 0 00.132-.32zM9.315 7.756v1.658a.445.445 0 00.13.317c.085.085.2.134.322.136h13.548a.469.469 0 00.325-.134.451.451 0 00.132-.32V7.757a.445.445 0 00-.137-.31.465.465 0 00-.32-.129H9.765a.465.465 0 00-.321.136.445.445 0 00-.131.318M19.218 2.26a1.413 1.413 0 00-.776.216 1.366 1.366 0 00-.522.6 1.33 1.33 0 00.276 1.485 1.42 1.42 0 001.509.32c.255-.1.475-.27.631-.49.157-.222.243-.483.247-.751v-.023c.003-.357-.14-.7-.396-.954a1.397 1.397 0 00-.97-.403M4.138 18.675a1.412 1.412 0 00-.776.216 1.366 1.366 0 00-.522.601 1.33 1.33 0 00.276 1.485c.19.193.436.326.704.383.269.057.549.034.804-.064.256-.099.476-.27.632-.49.157-.22.243-.482.247-.75v-.024c.002-.356-.14-.699-.397-.953a1.398 1.398 0 00-.968-.404zM51.001 10.825H45.4c.076-.665.404-1.28.918-1.722a2.793 2.793 0 011.865-.67c1.605 0 2.68.915 2.817 2.392h.002zm-2.84-4.731c-2.72 0-5.536 2.262-5.536 6.05-.03.826.109 1.65.408 2.424.3.773.753 1.48 1.336 2.08a5.7 5.7 0 001.869 1.206 5.806 5.806 0 002.2.406 5.358 5.358 0 003.164-.92 5.164 5.164 0 001.984-2.58.349.349 0 000-.273.337.337 0 00-.209-.185l-1.598-.55a.375.375 0 00-.275.016.361.361 0 00-.185.2 2.744 2.744 0 01-1.083 1.466 2.85 2.85 0 01-1.782.488 3.117 3.117 0 01-2.18-.83 2.978 2.978 0 01-.953-2.09h8.004c.091 0 .179-.032.246-.092a.35.35 0 00.116-.23c.02-.194.031-.388.032-.582 0-3.704-2.13-6.003-5.558-6.003M64.142 11.906c0 2.011-1.204 3.364-2.991 3.364-1.873 0-3.038-1.288-3.038-3.364 0-2.076 1.18-3.37 3.038-3.37 1.786 0 2.99 1.355 2.99 3.37zm2.184-5.462h-1.885a.397.397 0 00-.257.113.38.38 0 00-.113.253v.684c-.704-.827-1.818-1.258-3.247-1.258a5.294 5.294 0 00-2.14.418 5.19 5.19 0 00-1.775 1.24 5.872 5.872 0 00-1.485 4.012c0 3.27 2.271 5.646 5.403 5.646a4.217 4.217 0 001.766-.324 4.134 4.134 0 001.458-1.026v.897c0 2.309-1.023 3.411-3.224 3.411a2.825 2.825 0 01-1.893-.665 2.704 2.704 0 01-.942-1.739.36.36 0 00-.145-.237.376.376 0 00-.303-.063l-1.843.423a.393.393 0 00-.217.154.379.379 0 00-.066.254c.366 2.489 2.59 4.23 5.407 4.23 2.025 0 3.57-.61 4.585-1.818a6.13 6.13 0 001.282-4.012V6.812a.38.38 0 00-.111-.251.397.397 0 00-.254-.115M82.029 6.094a4.347 4.347 0 00-2.132.455 4.233 4.233 0 00-1.623 1.426 3.725 3.725 0 00-1.43-1.404 3.837 3.837 0 00-1.966-.477 4.322 4.322 0 00-1.742.341 4.237 4.237 0 00-1.446 1.01v-.66a.38.38 0 00-.113-.253.397.397 0 00-.257-.113h-1.814a.396.396 0 00-.254.115.38.38 0 00-.112.25v10.918a.38.38 0 00.112.251.397.397 0 00.254.115h1.885a.398.398 0 00.257-.114.38.38 0 00.113-.252v-6.611c0-1.57.968-2.623 2.405-2.623 1.89 0 2.168 1.469 2.168 2.341v6.893a.38.38 0 00.114.252c.068.068.16.108.256.114h1.909a.397.397 0 00.256-.114.38.38 0 00.113-.252v-6.635c0-1.538.98-2.6 2.363-2.6 1.89 0 2.168 1.47 2.168 2.342v6.893a.38.38 0 00.113.252c.069.068.16.108.257.114h1.885a.397.397 0 00.257-.114.38.38 0 00.113-.252v-7.125c0-3.077-2.066-4.486-4.113-4.486M90.703 10.825c.076-.666.404-1.28.919-1.723a2.793 2.793 0 011.866-.67c1.606 0 2.68.916 2.819 2.393h-5.604zm2.754-4.731c-2.719 0-5.535 2.262-5.535 6.05a6.08 6.08 0 00.407 2.424c.3.774.754 1.481 1.337 2.08a5.702 5.702 0 001.865 1.204 5.805 5.805 0 002.196.408c1.13.034 2.24-.289 3.167-.919a5.164 5.164 0 001.984-2.581.343.343 0 00-.02-.273.336.336 0 00-.208-.185l-1.598-.55a.378.378 0 00-.274.018.366.366 0 00-.186.198 2.747 2.747 0 01-1.083 1.465 2.855 2.855 0 01-1.782.489 3.117 3.117 0 01-2.172-.835 2.978 2.978 0 01-.949-2.085h8.005a.37.37 0 00.245-.093.355.355 0 00.117-.23c.02-.193.031-.387.031-.581 0-3.704-2.128-6.003-5.556-6.003M107.015 6.094a4.18 4.18 0 00-1.796.361 4.093 4.093 0 00-1.455 1.09V6.78a.375.375 0 00-.112-.251.395.395 0 00-.253-.115h-1.862a.401.401 0 00-.257.114.383.383 0 00-.113.252v10.923a.384.384 0 00.113.252c.068.068.16.108.257.114h1.905a.395.395 0 00.256-.114.38.38 0 00.114-.252V11.37a3.32 3.32 0 01.613-2.045 2.18 2.18 0 01.796-.617 2.23 2.23 0 01.995-.199c1.574 0 2.404.877 2.404 2.6v6.589a.384.384 0 00.114.252c.068.068.16.108.257.113h1.908a.396.396 0 00.254-.114.376.376 0 00.112-.251V10.74a5.011 5.011 0 00-1.054-3.285 3.98 3.98 0 00-1.438-1.039 4.066 4.066 0 00-1.758-.319M119.569 8.855a.38.38 0 00.261-.108.358.358 0 00.106-.256V6.814a.381.381 0 00-.106-.263.397.397 0 00-.261-.122H117.5V3.271a.38.38 0 00-.107-.264.398.398 0 00-.263-.12h-1.72a.397.397 0 00-.263.12.38.38 0 00-.107.264V4.94c0 1.312-.945 1.504-1.511 1.504h-.465a.384.384 0 00-.37.385v1.685a.382.382 0 00.113.251c.068.068.16.108.257.114h1.791v5.915c0 2.105 1.286 3.408 3.36 3.408a5.21 5.21 0 001.456-.184.371.371 0 00.192-.132.352.352 0 00.072-.218v-1.583a.375.375 0 00-.126-.277.373.373 0 00-.299-.08c-.219.031-.44.05-.662.053-.972 0-1.35-.384-1.35-1.315v-5.61h2.071zM41.19 14.671c0-1.746-1.342-3-3.687-3.461l-2.102-.385c-1.137-.211-1.377-.796-1.377-1.253 0-.685.755-1.393 2.015-1.393 1.806 0 2.362 1.016 2.522 1.62a.272.272 0 00.15.169c.085.033.18.033.264 0l1.908-.616a.254.254 0 00.156-.11.241.241 0 00.03-.187 3.932 3.932 0 00-1.326-1.88c-.922-.72-2.165-1.084-3.704-1.084-2.57 0-4.746 1.677-4.746 3.657 0 1.627 1.282 2.877 3.34 3.258l2.209.42c.995.197 1.574.684 1.574 1.346s-.65 1.391-2.078 1.391c-1.535 0-2.602-.689-2.85-1.842a.262.262 0 00-.145-.173.326.326 0 00-.162-.039.32.32 0 00-.106 0l-1.967.603a.265.265 0 00-.154.106.254.254 0 00-.044.179c.27 1.2 1.712 3.232 5.393 3.232 3.172 0 4.88-1.847 4.88-3.588" fill="inherit"/></svg>